<svg height="686" width="720" xmlns="http://www.w3.org/2000/svg">
<rect height="686" fill="#555" width="720"></rect>
<text fill="#7f7" font-family="Courier New" font-size="12" xml:space="preserve">
<tspan x="10" y="26">2 megabytes</tspan>
<tspan x="10" y="42">└─┬ node-gyp-install@2.2.0 </tspan>
<tspan x="10" y="58">  ├─┬ after-all@2.0.2 </tspan>
<tspan x="10" y="74">  │ └─┬ once@1.4.0 </tspan>
<tspan x="10" y="90">  │   └── wrappy@1.0.2 </tspan>
<tspan x="10" y="106">  ├── minimist@1.2.0 </tspan>
<tspan x="10" y="122">  ├─┬ multi-write-stream@1.1.1 </tspan>
<tspan x="10" y="138">  │ └─┬ readable-stream@2.2.6 </tspan>
<tspan x="10" y="154">  │   ├── buffer-shims@1.0.0 </tspan>
<tspan x="10" y="170">  │   ├── core-util-is@1.0.2 </tspan>
<tspan x="10" y="186">  │   ├── inherits@2.0.3 </tspan>
<tspan x="10" y="202">  │   ├── isarray@1.0.0 </tspan>
<tspan x="10" y="218">  │   ├── process-nextick-args@1.0.7 </tspan>
<tspan x="10" y="234">  │   ├── string_decoder@0.10.31 </tspan>
<tspan x="10" y="250">  │   └── util-deprecate@1.0.2 </tspan>
<tspan x="10" y="266">  ├─┬ npmlog@1.2.1 </tspan>
<tspan x="10" y="282">  │ ├── ansi@0.3.1 </tspan>
<tspan x="10" y="298">  │ ├─┬ are-we-there-yet@1.0.6 </tspan>
<tspan x="10" y="314">  │ │ └── delegates@1.0.0 </tspan>
<tspan x="10" y="330">  │ └─┬ gauge@1.2.7 </tspan>
<tspan x="10" y="346">  │   ├── has-unicode@2.0.1 </tspan>
<tspan x="10" y="362">  │   ├── lodash.pad@4.5.1 </tspan>
<tspan x="10" y="378">  │   ├── lodash.padend@4.6.1 </tspan>
<tspan x="10" y="394">  │   └── lodash.padstart@4.6.1 </tspan>
<tspan x="10" y="410">  ├─┬ pump@1.0.2 </tspan>
<tspan x="10" y="426">  │ └── end-of-stream@1.4.0 </tspan>
<tspan x="10" y="442">  ├── semver@5.0.3 </tspan>
<tspan x="10" y="458">  ├─┬ simple-get@1.4.3 </tspan>
<tspan x="10" y="474">  │ ├── unzip-response@1.0.2 </tspan>
<tspan x="10" y="490">  │ └── xtend@4.0.1 </tspan>
<tspan x="10" y="506">  ├─┬ tar-fs@1.15.2 </tspan>
<tspan x="10" y="522">  │ ├── chownr@1.0.1 </tspan>
<tspan x="10" y="538">  │ ├─┬ mkdirp@0.5.1 </tspan>
<tspan x="10" y="554">  │ │ └── minimist@0.0.8 </tspan>
<tspan x="10" y="570">  │ └─┬ tar-stream@1.5.2 </tspan>
<tspan x="10" y="586">  │   └── bl@1.2.0 </tspan>
<tspan x="10" y="602">  └─┬ tar-map-stream@1.0.0 </tspan>
<tspan x="10" y="618">    └─┬ duplexify@3.5.0 </tspan>
<tspan x="10" y="634">      ├─┬ end-of-stream@1.0.0 </tspan>
<tspan x="10" y="650">      │ └── once@1.3.3 </tspan>
<tspan x="10" y="666">      └── stream-shift@1.0.0</tspan>
</text>
</svg>
